<svg width="507" height="391" viewBox="0 0 507 391" fill="none" xmlns="http://www.w3.org/2000/svg">
<path d="M146.061 390.188C115.713 390.188 89.6644 382.509 67.9166 367.15C46.2915 351.668 29.6428 329.368 17.9702 300.248C6.42045 271.005 0.645597 235.803 0.645597 194.641C0.768466 153.48 6.60476 118.462 18.1545 89.5881C29.8271 60.5909 46.4759 38.4744 68.1009 23.2386C89.8487 8.00283 115.836 0.384929 146.061 0.384929C176.287 0.384929 202.274 8.00283 224.022 23.2386C245.77 38.4744 262.419 60.5909 273.968 89.5881C285.641 118.585 291.477 153.603 291.477 194.641C291.477 235.925 285.641 271.189 273.968 300.432C262.419 329.552 245.77 351.791 224.022 367.15C202.397 382.509 176.41 390.188 146.061 390.188ZM146.061 332.501C169.652 332.501 188.267 320.89 201.906 297.667C215.667 274.322 222.548 239.98 222.548 194.641C222.548 164.661 219.414 139.473 213.148 119.077C206.882 98.6804 198.035 83.3217 186.608 73.0007C175.181 62.5568 161.666 57.3349 146.061 57.3349C122.593 57.3349 104.04 69.0074 90.4016 92.3526C76.7631 115.575 69.8825 149.671 69.7596 194.641C69.6367 224.744 72.647 250.055 78.7905 270.575C85.0568 291.094 93.9034 306.575 105.33 317.019C116.757 327.34 130.334 332.501 146.061 332.501ZM506.237 5.54544V383H437.861V72.0792H435.649L347.367 128.476V65.8129L441.178 5.54544H506.237Z" fill="white"/>
</svg>
