<svg width="211" height="225" viewBox="0 0 211 225" fill="none" xmlns="http://www.w3.org/2000/svg">
<path d="M154.66 205.533C151.756 208.074 147.561 211.359 142.083 214.475L142.084 214.476C138.746 216.379 125.271 223.808 107.359 224.562L106.503 224.594C77.372 225.459 58.0589 209.276 53.7839 205.519L66.3855 191.18C69.5877 193.993 84.2072 206.158 105.933 205.513L106.569 205.489C119.882 204.926 130.145 199.309 132.633 197.891L132.638 197.888L133.398 197.448C137.141 195.243 140.04 192.959 142.089 191.166L154.66 205.533Z" fill="white"/>
<path d="M60.0847 207.894C65.3562 207.894 69.6295 203.621 69.6295 198.349C69.6295 193.078 65.3562 188.805 60.0847 188.805C54.8133 188.805 50.5399 193.078 50.5399 198.349C50.5399 203.621 54.8133 207.894 60.0847 207.894Z" fill="white"/>
<path d="M148.374 207.894C153.646 207.894 157.919 203.621 157.919 198.349C157.919 193.078 153.646 188.805 148.374 188.805C143.103 188.805 138.83 193.078 138.83 198.349C138.83 203.621 143.103 207.894 148.374 207.894Z" fill="white"/>
<path d="M134.853 83.5797C133.22 85.4257 130.812 87.8817 127.612 90.2398L127.613 90.2408C125.747 91.6194 117.402 97.6717 106.033 98.1051L106.034 98.1061C88.0134 98.7961 76.5207 85.9828 74.3897 83.5572L88.7315 70.9576C90.5141 72.9865 96.7428 79.3577 105.304 79.0299H105.306L105.803 79.0025C110.912 78.6393 115.077 75.7681 116.273 74.8844L116.283 74.8775L116.942 74.3746C118.439 73.1922 119.643 71.963 120.552 70.9352L134.853 83.5797Z" fill="white"/>
<path d="M208.769 50.3808C209.247 51.1762 209.724 52.25 210.201 53.6021C210.678 54.9543 210.917 56.4258 210.917 58.0166C210.917 60.721 210.281 62.8686 209.008 64.4594C207.735 66.0502 205.906 66.8456 203.52 66.8456H138.615V116.479C145.893 119.517 159.661 124.059 176.953 122.428C186.737 121.514 194.715 118.897 200.418 116.479C200.624 116.845 200.879 117.314 201.133 117.879C201.372 118.412 201.611 119.024 201.849 119.7C202.327 121.052 202.565 122.524 202.565 124.115C202.565 124.115 202.557 127.28 200.656 130.557C198.517 134.248 189.68 136.746 172.181 138.336C164.251 139.06 152.51 137.342 138.615 132.944V167.066H119.048V60.8801C119.048 57.6985 120.002 55.1532 121.911 53.2442C123.82 51.3353 126.366 50.3808 129.547 50.3808H208.769Z" fill="white"/>
<path d="M0 118.777C1.27264 117.187 3.10207 116.391 5.48828 116.391C11.7163 119.557 25.8188 125.626 44.121 124.027C55.7736 123.009 64.8094 119.271 70.3931 116.391V66.7581H8.59034C8.1131 65.9627 7.63586 64.8889 7.15862 63.5367C6.68138 62.1845 6.44276 60.7131 6.44276 59.1222C6.44276 56.4179 7.07908 54.2703 8.35172 52.6795C9.62437 51.0887 11.4538 50.2933 13.84 50.2933H70.3931V16.1626H89.96V122.357C89.96 125.538 89.0055 128.084 87.0965 129.993C83.8831 133.206 62.3039 139.585 45.7118 140.731C26.3596 142.067 9.80731 136.769 0.238621 132.856" fill="white"/>
<path d="M118.944 160.17H138.83V172.101C138.83 176.492 135.266 180.055 130.876 180.055H121.331C120.01 180.055 118.944 178.989 118.944 177.669V160.17Z" fill="white"/>
<path d="M90.0634 19.885H70.1783V7.95402C70.1783 3.56339 73.7417 -7.62939e-06 78.1323 -7.62939e-06H87.6772C88.9975 -7.62939e-06 90.0634 1.06583 90.0634 2.3862V19.885Z" fill="white"/>
</svg>
